<?xml version="1.0" encoding="UTF-8"?><svg id="Layer_1" xmlns="http://www.w3.org/2000/svg" xmlns:xlink="http://www.w3.org/1999/xlink" viewBox="0 0 622.28 227.66"><defs><style>.cls-1{letter-spacing:-.02em;}.cls-2{fill:url(#linear-gradient);}.cls-3{letter-spacing:-.02em;}.cls-4{letter-spacing:-.02em;}.cls-5,.cls-6{fill:#841fff;}.cls-7{letter-spacing:.32em;}.cls-8{letter-spacing:-.03em;}.cls-6{font-size:90.28px;}.cls-6,.cls-9{font-family:Philosopher-Bold, Philosopher;}.cls-10{letter-spacing:.3em;}.cls-11{letter-spacing:.29em;}.cls-12{letter-spacing:0em;}.cls-13{letter-spacing:.3em;}.cls-9{fill:#b2b2b2;font-size:19px;}.cls-14{letter-spacing:-.03em;}.cls-15{letter-spacing:0em;}</style><linearGradient id="linear-gradient" x1="78.74" y1="19.21" x2="78.74" y2="210.97" gradientTransform="matrix(1, 0, 0, 1, 0, 0)" gradientUnits="userSpaceOnUse"><stop offset="0" stop-color="#362859"/><stop offset=".51" stop-color="#841fff"/><stop offset="1" stop-color="#d4bedd"/></linearGradient></defs><text class="cls-9" transform="translate(206.17 183.25)"><tspan class="cls-13" x="0" y="0">Bi</tspan><tspan class="cls-7" x="28.71" y="0">j</tspan><tspan class="cls-13" x="39.88" y="0">bel-tijdlijn studie soft</tspan><tspan class="cls-10" x="355.98" y="0">w</tspan><tspan class="cls-13" x="376.31" y="0">a</tspan><tspan class="cls-11" x="391.43" y="0">r</tspan><tspan class="cls-13" x="404.91" y="0">e</tspan></text><text class="cls-6" transform="translate(200.25 140.58)"><tspan class="cls-3" x="0" y="0">B</tspan><tspan class="cls-15" x="56.34" y="0">i</tspan><tspan class="cls-1" x="80.53" y="0">bl</tspan><tspan class="cls-8" x="149.6" y="0">e</tspan><tspan class="cls-12" x="192.48" y="0">F</tspan><tspan class="cls-4" x="240.96" y="0">l</tspan><tspan class="cls-14" x="262.45" y="0">o</tspan><tspan class="cls-1" x="309.39" y="0">w</tspan></text><path class="cls-5" d="M72.6,2.94l6.14-2.94,6.14,2.94c2.96,1.42,72.6,35.51,72.6,105.6v119.13H0V108.54C0,38.44,69.63,4.35,72.6,2.94ZM7.12,220.54H150.36V108.54c0-27.31-11.91-53.15-34.45-74.74-16.76-16.05-33.41-24.11-34.11-24.44l-3.07-1.47-3.07,1.47c-.7,.33-17.35,8.39-34.11,24.44C19.03,55.38,7.12,81.23,7.12,108.54v112.01Z"/><path class="cls-2" d="M91.84,208.46c.48,1.2-.41,2.51-1.7,2.51h-19.12c-.52,0-1.01-.22-1.36-.61l-18.99-21.05c-.72-.79-.6-2.03,.24-2.68l15-11.54c1.21-.93,2.95-.07,2.95,1.45v11.32c0,1.01,.82,1.83,1.83,1.83h12.46c.75,0,1.43,.46,1.7,1.16l6.99,17.6Zm-45.02-16.55c-.64-.71-1.72-.81-2.48-.23l-20.8,16c-1.39,1.07-.63,3.29,1.12,3.29H59.89c1.59,0,2.43-1.88,1.36-3.06l-14.44-16Zm47.9-105.74h19.74c1.01,0,1.83,.82,1.83,1.83v3.59c0,1.1,.95,1.95,2.04,1.82l18.82-2.14c1.09-.12,1.84-1.17,1.58-2.24-2.63-10.9-7.29-20.52-12.9-28.87-.61-.9-1.87-1.06-2.7-.36l-29.01,24.74c-.65,.55-.26,1.61,.6,1.61Zm20.33,88.61l-23.72-12.65c-1.22-.65-2.7,.23-2.7,1.62v23.85c0,.23,.04,.46,.13,.68l3.99,10.05c.5,1.25,2.13,1.56,3.05,.57l19.73-21.25c.82-.88,.58-2.3-.48-2.87Zm25.26-77.46c-.13-.98-1.04-1.67-2.03-1.56l-20.36,2.32c-.93,.11-1.63,.89-1.63,1.82v4.21c0,1.01-.82,1.83-1.83,1.83h-24c-1.01,0-1.83,.82-1.83,1.83v11.36c0,.88,.62,1.63,1.48,1.8l48.77,9.59c1.13,.22,2.19-.64,2.19-1.8v-20.09c0-3.9-.27-7.66-.76-11.3ZM17.13,152.25l34.34,26.44c.66,.51,1.58,.51,2.24,0l14.43-11.1c.45-.35,.72-.88,.72-1.45v-17.59c0-.91-.67-1.69-1.58-1.82l-48.77-6.88c-1.1-.16-2.09,.7-2.09,1.82v9.13c0,.57,.26,1.11,.72,1.45Zm122.46-16.92l-10.5-2.06c-.7-.14-1.42,.14-1.84,.72l-20.82,28.63c-.66,.9-.36,2.17,.62,2.7l31.32,16.71c1.22,.65,2.7-.23,2.7-1.62v-43.28c0-.88-.62-1.63-1.48-1.8Zm.51,52.81l-17.52-9.34c-.73-.39-1.64-.24-2.21,.37l-23.89,25.73c-.48,.52-.62,1.27-.36,1.92l1.19,2.99c.28,.7,.95,1.16,1.7,1.16h40.22c1.01,0,1.83-.82,1.83-1.83v-19.38c0-.68-.37-1.3-.97-1.62Zm-93.16-7.15l-27.57-21.23c-1.21-.93-2.95-.07-2.95,1.45v42.44c0,1.52,1.75,2.38,2.95,1.45l27.57-21.21c.95-.73,.95-2.17,0-2.91Zm-10.43-123.84l29.74,13.92c1.22,.57,2.61-.32,2.61-1.66v-6.72c0-1.01,.82-1.83,1.83-1.83h3.11c.71,0,1.15-.76,.79-1.38l-14.91-25.77c-.56-.97-1.85-1.22-2.72-.53-6.88,5.48-14.44,12.54-21.14,21.2-.72,.92-.37,2.28,.68,2.77Zm34.45-13.12c.43,.74,1.31,1.09,2.13,.83l27.07-8.3c1.41-.43,1.76-2.27,.61-3.19-9.95-7.95-18.54-12.6-21.18-13.96-.52-.27-1.14-.27-1.66,0-2,1.02-7.4,3.94-14.22,8.74-.77,.54-1,1.59-.52,2.41l7.79,13.46Zm18.66,111.98l10.16,5.31c.81,.42,1.8,.19,2.33-.55l19.18-26.38c.79-1.08,.19-2.62-1.13-2.88l-29.34-5.77c-1.13-.22-2.19,.64-2.19,1.8v26.84c0,.68,.38,1.31,.98,1.63Zm-71.62-20.85l22.3,3.15c.83,.12,1.63-.34,1.95-1.11l4.83-11.66c.37-.88,0-1.9-.86-2.34l-27.13-13.83c-1.22-.62-2.67,.26-2.67,1.63v22.35c0,.91,.67,1.69,1.58,1.82ZM75.19,51.36l4.97,8.59c.33,.57,.93,.92,1.59,.92h5.05c1.01,0,1.83,.82,1.83,1.83v18.53c0,.78,.92,1.21,1.51,.7l30.49-26c.75-.64,.87-1.76,.25-2.53-4.04-5.09-8.35-9.61-12.63-13.57-.48-.44-1.16-.59-1.78-.4l-30.22,9.27c-1.13,.35-1.64,1.65-1.05,2.67Zm-32.48,34.3c.34,.33,.8,.51,1.27,.51h23.04c1.01,0,1.83-.82,1.83-1.83v-5.81c0-.71-.41-1.36-1.06-1.66l-34.6-16.2c-.82-.39-1.81-.12-2.31,.65-1.49,2.29-2.91,4.66-4.23,7.14-.39,.72-.24,1.62,.36,2.19l15.7,15.02Zm-25.01,17.84l30.02,15.3c.95,.49,2.12,.06,2.53-.93l3.89-9.39c.5-1.21-.39-2.54-1.69-2.54h-9.42c-1.01,0-1.83-.82-1.83-1.83v-12.78c0-.5-.2-.98-.57-1.33l-14.81-14.16c-.93-.89-2.47-.57-2.97,.63-3.18,7.65-5.39,16.07-6.14,25.25-.06,.74,.34,1.45,1,1.79Zm49.32,2.44h-5.65c-.74,0-1.41,.45-1.69,1.13l-12.38,29.9c-.46,1.11,.25,2.35,1.44,2.52l18.03,2.54c1.1,.16,2.09-.7,2.09-1.82v-32.44c0-1.01-.82-1.83-1.83-1.83Z"/></svg>